# xmcd CD database file
#
# Track frame offsets:
#	182
#	16200
#	25070
#	36220
#	51337
#	59882
#	70867
#	85095
#	98672
#	108222
#	118100
#	133517
#	150157
#	163277
#	174445
#	191160
#	201535
#	212220
#	231300
#	245177
#	255760
#	270910
#	282177
#	296040
#	303672
#	316427
#
# Disc length: 4354 seconds
#
# Revision: 2
# Processed by: cddbd v1.5.2PL0 Copyright (c) Steve Scherf et al.
# Submitted via: CDex 1.51
#
DISCID=7e11001a
DTITLE=Greenhorns - 50x30 let Greenhorns 1965-1995
DYEAR=1995
DGENRE=Country
TTITLE0=Zatracenej zivot (1967)
TTITLE1=Abilene (1967)
TTITLE2=Ja jsem vandrak a karbanik (1968)
TTITLE3=Houston (1968)
TTITLE4=A tak ja v tom zas litam (1968)
TTITLE5=Rovnou tady rovnou (1969)
TTITLE6=Vlak pùlnocni (1969)
TTITLE7=T jako Texas (1970)
TTITLE8=John Hardy (1970)
TTITLE9=Ma whisky (1970)
TTITLE10=Cervena reka (1970)
TTITLE11=Pres plane (1970)
TTITLE12=Jen tohle chci ti rict (1970)
TTITLE13=Waterloo (1970)
TTITLE14=Dnesni noc bude dlouha (1970)
TTITLE15=Kocarem mym je vagon uhli (1970)
TTITLE16=Odjizdim v dal (1970)
TTITLE17=Oranzovy expres (1971)
TTITLE18=Blizko Little Big Hornu (1971)
TTITLE19=Kdyz nas tata hral (1971)
TTITLE20=Zluta kytka (1971)
TTITLE21=Blues folsomske veznice (1971)
TTITLE22=Na vanoce rano (1972)
TTITLE23=Slapej dal (1972)
TTITLE24=Blues hvizdaveho vlaku (1972)
TTITLE25=Tak ja jdu dal (1972)
EXTD=YEAR: 1995
EXTT0=
EXTT1=
EXTT2=
EXTT3=
EXTT4=
EXTT5=
EXTT6=
EXTT7=
EXTT8=
EXTT9=
EXTT10=
EXTT11=
EXTT12=
EXTT13=
EXTT14=
EXTT15=
EXTT16=
EXTT17=
EXTT18=
EXTT19=
EXTT20=
EXTT21=
EXTT22=
EXTT23=
EXTT24=
EXTT25=
PLAYORDER=
